<?xml version="1.0" encoding="utf-8"?>
<!-- Generator: Adobe Illustrator 16.0.4, SVG Export Plug-In . SVG Version: 6.00 Build 0)  -->
<!DOCTYPE svg PUBLIC "-//W3C//DTD SVG 1.1//EN" "http://www.w3.org/Graphics/SVG/1.1/DTD/svg11.dtd">
<svg version="1.1" id="Ebene_1" xmlns="http://www.w3.org/2000/svg" xmlns:xlink="http://www.w3.org/1999/xlink" x="0px" y="0px"
	 width="12px" height="12px" viewBox="0 0 12 12" enable-background="new 0 0 12 12" xml:space="preserve">
<g>
	<path fill="#AAAAAA" d="M12,6c0-3.312-2.688-6-6-6S0,2.688,0,6S2.687,12,6,12S12,9.312,12,6 M9.102,7.898
		c-0.195,0.195-0.508,0.195-0.703,0L6,5.5L3.601,7.898c-0.195,0.195-0.508,0.195-0.703,0L2.101,7.102
		c-0.195-0.195-0.195-0.508,0-0.703l3.547-3.547c0.196-0.195,0.508-0.195,0.704,0l3.547,3.547c0.195,0.195,0.195,0.508,0,0.703
		L9.102,7.898z"/>
</g>
</svg>
