<?xml version="1.0" encoding="utf-8"?>
<!-- Generator: Adobe Illustrator 16.0.4, SVG Export Plug-In . SVG Version: 6.00 Build 0)  -->
<!DOCTYPE svg PUBLIC "-//W3C//DTD SVG 1.1//EN" "http://www.w3.org/Graphics/SVG/1.1/DTD/svg11.dtd">
<svg version="1.1" id="Ebene_1" xmlns="http://www.w3.org/2000/svg" xmlns:xlink="http://www.w3.org/1999/xlink" x="0px" y="0px"
	 width="12px" height="12px" viewBox="0 4 12 12" enable-background="new 0 4 12 12" xml:space="preserve">
<g>
	<defs>
		<rect id="SVGID_1_" y="4" width="11.999" height="12"/>
	</defs>
	<clipPath id="SVGID_2_">
		<use xlink:href="#SVGID_1_"  overflow="visible"/>
	</clipPath>
	<path clip-path="url(#SVGID_2_)" fill="#BBBBBB" d="M11.999,6.25C11.999,5.007,10.992,4,9.75,4H2.249C1.007,4,0,5.007,0,6.25v7.5
		c0,1.243,1.007,2.25,2.249,2.25H9.75c1.242,0,2.249-1.007,2.249-2.25V6.25z M10,13.749c0,0.134-0.117,0.25-0.25,0.25H2.249
		c-0.133,0-0.25-0.116-0.25-0.25v-7.5C1.999,6.118,2.116,6,2.249,6H9.75C9.883,6,10,6.118,10,6.25V13.749z M8.945,11.727
		c0.086-0.164,0.07-0.367-0.039-0.516l-2.5-3.5C6.312,7.579,6.163,7.5,5.999,7.5S5.687,7.579,5.593,7.71l-2.5,3.5
		c-0.11,0.148-0.125,0.352-0.039,0.516c0.086,0.172,0.258,0.272,0.445,0.272H8.5C8.687,11.999,8.859,11.898,8.945,11.727"/>
</g>
</svg>
